<svg xmlns="http://www.w3.org/2000/svg" viewBox="0 0 284 377">
<defs>
<style>.cls-1{fill:#ffffff;stroke:##ffffff;stroke-miterlimit:10;}</style>
</defs><title>shootbuttonAsset 1</title>
<g id="Layer_2" data-name="Layer 2">
<g id="Layer_1-2" data-name="Layer 1">
<path class="cls-1" d="M142.51.59c14-1.41,17.49,14.11,8.12,19.9-9.54,5.64-20.49,10.3-30.74,15-18.73,8.75-37.46,17.36-56,26-8,3.67-15.72,7.34-23.5,11.15-3.53,1.84-8.65,4.09-11,6.92-.71,1-.35,2.39-.35,3.52v39.37c0,38.94.35,78,.35,116.83,0,22.44.35,44.87.35,67.17v16.5c0,1.7-.7,4.94.71,6.07,3,2.4,8.13,3.81,11.66,5.65,8.3,3.8,16.43,7.9,24.91,11.57,4.42,2,9.9,4.51,15.2,4.23,2.29-.28,4.24-2.12,6-3.11,4.42-2,8.84-3.95,13.26-6.06,16.07-7.2,32.15-14.68,48.05-22.16,10.25-4.65,20.32-9.31,30.39-14.11,2.48-1,4.95-2.25,7.6-3.38.88-.43,2.47-1,3-1.84.71-1.41.18-3.38.18-4.79,0-3.25.35-6.49.35-9.74.18-7.9.53-15.52.89-23.42.35-3.81,0-7.62.88-11.43.18-2.82-.35-6.49,1.24-9.31a6.38,6.38,0,0,1,2.82-2.12c2.66-1.69,6.72-3.95,10.25-3.53,4.24.71,9.54,3.11,11.13,6.49,1.06,2,1.06,4.66,1.06,6.63.53,14.11.18,28.51.18,42.62,0,3.95-.18,7.76-.53,11.85-.18,2.82,0,6.21-1.41,8.89-2.3,3.53-7.07,6.07-11.49,7.76-7.06,3.53-13.78,6.77-20.85,9.88-23,11.14-46.46,21.87-69.61,32.31-6.71,3-12.9,6.06-19.43,8.89-5,2.25-9.72,4.23-15,5.08-4.77.56-9.54-1.41-13.78-3.25-7.43-2.82-14.67-5.92-21.74-9.17C35.26,359,25,354.19,15.12,349c-5.13-2.68-10.78-5.65-14-9.88-1.24-1.83-.35-5.36-.35-7.34v-209c0-12.27.35-24.69.35-37,0-4,.35-8.18.53-12.27.35-2.54,0-5.79,1.24-8.18,1.59-2.83,5.65-4.94,8.65-6.5C19.36,54.35,28,51.25,36.14,47.29c22.62-10.58,45.41-20.88,68-31.6,7.06-3.25,14.13-6.63,21.2-9.6A59.49,59.49,0,0,1,142.51.59"/><path class="cls-1" d="M204.35,30.36c7.06-.7,14.66,3.11,20.49,5.65,14,6.35,27.74,12.55,41,19.61,5.48,2.82,13.25,5.78,16.08,10.86,1.77,3.39,1.24,7.91,1.24,11.72.35,7.9.35,15.94.35,23.84,0,8.75-.35,17.5-.53,26.39-.35,4.65-2.65,9.87-8.3,11.71-6.72,2-16.26-2.82-21.74-5.36-9.89-4.38-19.78-9-29.86-13.27-4.94-2.25-10.24-5.22-15.9-6.49-1.94-.28-4.59.71-6.36,1.41-3.89,1.7-7.95,3.25-12,5.37-8.31,4-17,7.62-25.45,11.42-5.83,2.83-12.36,6.07-19.25,6.92-3,.14-6.36,0-8.84-1.13-5.48-2.54-8.83-10-5.48-14.67,1.77-2.4,4.95-4,7.78-5.65,5.48-3,11.66-5.78,17.31-8.61,10.43-4.93,21-9.73,31.63-14.39,6-2.54,13.08-6.07,20.5-5.78,6.53,0,12.89,3,18.37,5.36,6.89,3.24,13.61,6.35,20.67,9.17,2.12.71,6.36,2.54,7.78.42,1.06-1.69.88-3.52,1.06-5.36.7-4.94,0-9.88,0-14.81,0-2.12.35-5.65-1.24-7.34-2.3-2.12-6.36-3.53-9-4.94-6.18-2.82-12.19-5.64-18.2-8.47-4.59-2.25-9.36-4.23-14.13-6.06-1.77-.85-4.07-2.12-6.19-2.12-3,.28-7.06,2.68-9.72,4-6.89,3-13.95,5.93-20.67,9.17q-26.5,11.85-53,24.27c-5.66,2.54-11.49,5.22-17,8a81.7,81.7,0,0,0-9.37,4.66c-3.53,2.4-2.83,7.76-3,11-.53,9.31-.71,18.76-.71,28.08,0,33.86.18,67.72.18,101.59,0,8.61.53,17.07.53,25.82,0,2.4.53,4.66.7,7,0,1,0,2.4,1.06,3.25s3,.28,4.25,0c3.53-1.13,7.06-2.68,10.42-4.09,8.48-4.09,17.14-8.33,26.5-11.15,4.07-1.13,9.37-2.4,13.25-.7,5,2,8,8.89,6.36,12.84-1.23,3.1-4.06,5.22-7.06,7.33-5.3,3.11-11.31,5.79-17.14,8.47-8.66,3.95-17.14,8-25.8,12-4.24,2.12-8.83,3.81-13.07,5.93-3.71,1.55-8.13,3.53-12.55,4.23-5.3.57-8.83-1.83-12.36-4.65-1.42-1-3.18-2-3.36-3.25-.71-1.55-.18-3.67-.18-5.22v-96.8c0-25.39.18-50.51.18-75.91,0-8.46,0-16.93.71-25.4.35-3.24-.18-7.33,1.59-10.58,1.41-2.82,5.47-4.8,8.3-6.63a117,117,0,0,1,14.13-7.9c3.54-1.55,7.6-2.82,11.14-4.38,24.38-11.14,47.88-23.14,72.61-33.86,10.07-4.37,19.79-10.86,31.28-12.56"/><path class="cls-1" d="M204.88,177.53c2.12-.42,4.41.28,6.18.85a86.26,86.26,0,0,1,12.72,5.08c14,5.78,27.56,12.27,41,18.76,3.18,1.56,6.54,3.11,9.9,4.94,2.12,1,4.77,2.26,6,4.23,1.24,2.12,1.24,4.66,1.24,6.92.18,3.38.53,7.05.53,10.44,0,11.29.53,22.86.53,34.15,0,18.48.18,37,.18,55.59,0,4.37,0,8.61-.18,13.12,0,3.39,0,7.2-2.65,10.3-3,3.81-8.83,6.35-13.6,8.61-9.37,4.8-19.09,9-28.8,13.55-4.77,2.39-9.72,4.65-14.49,6.77-5.83,2.82-12,5.92-19.08,5.64-9.55-.14-16.26-10.44-10.08-16.51,4.6-4.23,11-7.48,16.79-10.3,8.83-4.37,17.67-8.18,26.5-12.41,3.71-1.84,7.42-3.67,11-5.51,1.59-.84,3.88-1.55,4.94-2.82,1.42-1.55.89-5.22.89-7.05,0-5.65.35-11.29.35-16.94,0-19.33-.35-38.66-.35-58V231c0-1.7.88-4.8-.18-6.21s-3.89-2.12-5.3-2.82l-13.07-6.35c-7.43-3.39-14.49-7.06-22.09-10-1.94-.85-5.83-3.39-8-3.25-1.59.15-3.36,1.42-4.59,1.84-3.36,1.55-6.54,3-9.9,4.65-10.6,4.94-21.38,9.88-32,14.68-6.36,3-13.43,7.05-21,5.22-7.78-1.83-11.67-9.31-8.84-15.1,1.24-2.26,3.54-3.81,5.83-5.5,5.3-3.53,11.84-5.93,17.85-8.75,8.65-4,17.31-8.18,26.15-12,5.47-2.4,11-4.66,16.6-6.78,2.83-1.27,5.84-2.68,9-3.1"/></g></g></svg>